<svg width="1600" height="900" viewBox="0 0 1600 900" fill="none" xmlns="http://www.w3.org/2000/svg">
  <rect width="1600" height="900" fill="#F8EFE7"/>
  <rect width="1600" height="900" fill="url(#bg)"/>
  <circle cx="1360" cy="140" r="180" fill="#F97316" fill-opacity="0.16"/>
  <circle cx="260" cy="180" r="220" fill="#E50914" fill-opacity="0.12"/>
  <circle cx="1290" cy="720" r="180" fill="#16A34A" fill-opacity="0.10"/>
  <rect x="110" y="120" width="1380" height="660" rx="40" fill="#FFF9F4" fill-opacity="0.82" stroke="#EAD7CB" stroke-width="2"/>
  <rect x="170" y="180" width="560" height="500" rx="32" fill="#1C1217"/>
  <rect x="170" y="180" width="560" height="500" rx="32" fill="url(#panelGlow)"/>
  <text x="230" y="275" fill="#FF7A82" font-family="Arial, sans-serif" font-size="26" font-weight="700" letter-spacing="6">D2C STORY</text>
  <text x="230" y="350" fill="white" font-family="Arial, sans-serif" font-size="68" font-weight="800">GreenCart</text>
  <text x="230" y="410" fill="#F6D9C5" font-family="Arial, sans-serif" font-size="30" font-weight="500">Sustainable delivery for dense city clusters</text>
  <rect x="230" y="470" width="250" height="74" rx="22" fill="#E50914"/>
  <text x="275" y="516" fill="white" font-family="Arial, sans-serif" font-size="34" font-weight="800">10K orders</text>
  <text x="230" y="605" fill="#F8E8DF" font-family="Arial, sans-serif" font-size="28" font-weight="500">Lean routes. Lower costs.</text>
  <text x="230" y="650" fill="#F8E8DF" font-family="Arial, sans-serif" font-size="28" font-weight="500">Reusable packaging.</text>
  <g transform="translate(865 176)">
    <rect x="0" y="0" width="560" height="508" rx="38" fill="#F5E8DC"/>
    <rect x="0" y="315" width="560" height="193" rx="0" fill="#E8D2BF"/>
    <rect x="68" y="370" width="420" height="20" rx="10" fill="#D1B39A"/>
    <ellipse cx="275" cy="372" rx="226" ry="22" fill="#D9BDA5"/>
    <rect x="150" y="225" width="215" height="108" rx="24" fill="#0F7A44"/>
    <rect x="168" y="152" width="185" height="104" rx="22" fill="#15A34A"/>
    <rect x="340" y="178" width="90" height="122" rx="18" fill="#FED7AA"/>
    <rect x="373" y="148" width="32" height="64" rx="12" stroke="#C08457" stroke-width="14"/>
    <circle cx="208" cy="384" r="42" fill="#2C1B21"/>
    <circle cx="405" cy="384" r="42" fill="#2C1B21"/>
    <circle cx="208" cy="384" r="20" fill="#F8EFE7"/>
    <circle cx="405" cy="384" r="20" fill="#F8EFE7"/>
    <rect x="286" y="210" width="56" height="82" rx="14" fill="#0E5A36"/>
    <path d="M96 354C96 354 170 252 282 248C393 244 474 288 474 288" stroke="#3C2A31" stroke-width="18" stroke-linecap="round"/>
    <path d="M404 152C432 114 471 84 508 74" stroke="#E50914" stroke-width="12" stroke-linecap="round"/>
    <path d="M512 66C525 90 529 110 526 135" stroke="#16A34A" stroke-width="12" stroke-linecap="round"/>
    <path d="M474 130C499 126 516 115 531 96" stroke="#16A34A" stroke-width="10" stroke-linecap="round"/>
    <circle cx="133" cy="144" r="48" fill="#FFF3E7"/>
    <path d="M133 111C152 132 154 154 133 177C112 154 114 132 133 111Z" fill="#F97316"/>
    <path d="M101 176C111 155 127 148 149 155C157 178 149 197 125 207C108 203 100 192 101 176Z" fill="#16A34A"/>
  </g>
  <defs>
    <linearGradient id="bg" x1="800" y1="0" x2="800" y2="900" gradientUnits="userSpaceOnUse">
      <stop stop-color="#FDF7F2"/>
      <stop offset="1" stop-color="#F5E8DC"/>
    </linearGradient>
    <linearGradient id="panelGlow" x1="170" y1="180" x2="730" y2="680" gradientUnits="userSpaceOnUse">
      <stop stop-color="#2B1A22"/>
      <stop offset="1" stop-color="#120C10"/>
    </linearGradient>
  </defs>
</svg>
